# xmcd
#
# Track frame offsets:
#	150
#	22761
#	35856
#	46771
#	59415
#	72641
#	86304
#	98412
#	109194
#	122514
#	136419
#	147138
#	158849
#	172367
#	183395
#	196978
#	208234
#	225034
#	239681
#	253238
#
# Disc length: 3593 seconds
#
# Revision: 1
# Processed by: cddbd v1.5.1PL0 Copyright (c) Steve Scherf et al.
# Submitted via: audiograbber 1.83.01
#
DISCID=1a0e0714
DTITLE=Etta James - Gitanes blues compilation
DYEAR=2000
DGENRE=blues
TTITLE0=Something's got a hold on me
TTITLE1=Ain't that lovin' you baby
TTITLE2=Don't cry baby
TTITLE3=Next door to the blues
TTITLE4=Pushover
TTITLE5=At last
TTITLE6=Pay back
TTITLE7=Ine the basement part one
TTITLE8=It must be your love
TTITLE9=I prefer you
TTITLE10=Tell mama
TTITLE11=I'd rather go blind
TTITLE12=Call my name
TTITLE13=You got it
TTITLE14=Do right woman, do right man
TTITLE15=Security
TTITLE16=Let's burn down the cornfield
TTITLE17=Woman
TTITLE18=Losers weepers, part one
TTITLE19=God's song (that's why I love mankind)
EXTD=
EXTT0=
EXTT1=
EXTT2=
EXTT3=
EXTT4=
EXTT5=
EXTT6=
EXTT7=
EXTT8=
EXTT9=
EXTT10=
EXTT11=
EXTT12=
EXTT13=
EXTT14=
EXTT15=
EXTT16=
EXTT17=
EXTT18=
EXTT19=
PLAYORDER=
